<svg xmlns="http://www.w3.org/2000/svg" width="77.058" height="55.045" viewBox="0 0 77.058 55.045">
  <g id="Group_4279" data-name="Group 4279" transform="translate(0.375 -73.172)" opacity="0.848">
    <g id="Group_4274" data-name="Group 4274" transform="translate(22.842 112.607)">
      <g id="Group_4273" data-name="Group 4273">
        <path id="Path_2876" data-name="Path 2876" d="M156.465,337.255a1.577,1.577,0,0,0-.085-.278,1.51,1.51,0,0,0-.321-.482,1.494,1.494,0,0,0-.484-.321,1.391,1.391,0,0,0-.278-.086,1.472,1.472,0,0,0-.582,0,1.393,1.393,0,0,0-.278.086,1.495,1.495,0,0,0-.484.321,1.424,1.424,0,0,0-.185.226,1.51,1.51,0,0,0-.137.256,1.574,1.574,0,0,0-.085.278,1.493,1.493,0,0,0-.03.292,1.466,1.466,0,0,0,.03.29,1.505,1.505,0,0,0,.085.278,1.468,1.468,0,0,0,.137.257,1.418,1.418,0,0,0,.185.226,1.493,1.493,0,0,0,.226.185,1.583,1.583,0,0,0,.257.137,1.5,1.5,0,0,0,.278.085,1.437,1.437,0,0,0,.582,0,1.491,1.491,0,0,0,.278-.085,1.6,1.6,0,0,0,.257-.137,1.444,1.444,0,0,0,.411-.411,1.467,1.467,0,0,0,.137-.257,1.5,1.5,0,0,0,.085-.278,1.464,1.464,0,0,0,.028-.29A1.491,1.491,0,0,0,156.465,337.255Z" transform="translate(-153.517 -336.058)" fill="#d6ca6b" stroke="#d6ca6b" stroke-width="0.75"/>
      </g>
    </g>
    <g id="Group_4276" data-name="Group 4276" transform="translate(6.372 105.049)">
      <g id="Group_4275" data-name="Group 4275">
        <path id="Path_2877" data-name="Path 2877" d="M45.77,286.462a1.552,1.552,0,0,0-.085-.28,1.516,1.516,0,0,0-.322-.482,1.612,1.612,0,0,0-.228-.186,1.514,1.514,0,0,0-.256-.135,1.461,1.461,0,0,0-.86-.086,1.509,1.509,0,0,0-.278.086,1.433,1.433,0,0,0-.484.321,1.423,1.423,0,0,0-.185.226,1.508,1.508,0,0,0-.137.256,1.552,1.552,0,0,0-.085.28,1.429,1.429,0,0,0,0,.58,1.506,1.506,0,0,0,.085.278,1.469,1.469,0,0,0,.137.257,1.431,1.431,0,0,0,.185.226,1.414,1.414,0,0,0,.226.184,1.5,1.5,0,0,0,.536.222,1.477,1.477,0,0,0,.29.03,1.492,1.492,0,0,0,.292-.03,1.528,1.528,0,0,0,.278-.085,1.511,1.511,0,0,0,.256-.137,1.5,1.5,0,0,0,.228-.184,1.51,1.51,0,0,0,.185-.226,1.468,1.468,0,0,0,.137-.257,1.5,1.5,0,0,0,.085-.278,1.5,1.5,0,0,0,0-.58Z" transform="translate(-42.822 -285.264)" fill="#d6ca6b" stroke="#d6ca6b" stroke-width="0.75"/>
      </g>
    </g>
    <g id="Group_4278" data-name="Group 4278" transform="translate(0 73.547)">
      <g id="Group_4277" data-name="Group 4277">
        <path id="Path_2878" data-name="Path 2878" d="M75.542,100.429a5.211,5.211,0,0,0-.345-.563V75.035a1.488,1.488,0,0,0-1.488-1.488H21.327a1.488,1.488,0,0,0-1.488,1.488v5.61H14.232a1.488,1.488,0,0,0-1.488,1.488V99.067H1.488A1.488,1.488,0,0,0,0,100.554V126.2a1.488,1.488,0,0,0,1.488,1.488H14.232A1.488,1.488,0,0,0,15.72,126.2v-4.165c.964.5,1.9,1.029,2.817,1.544,3.9,2.191,7.583,4.259,12.457,4.259H47.1c5.275,0,12.829-2.485,15.878-6.5l11.575-13.558c.019-.022.037-.045.055-.069C75.97,105.908,76.844,102.857,75.542,100.429Zm-62.8,24.287h-3.4V111.941a1.488,1.488,0,0,0-2.976,0v12.775h-3.4V102.042h9.768v22.674ZM22.814,76.523H72.221V97.781a5.523,5.523,0,0,0-.737-.151,5.34,5.34,0,0,0-3.381.649V82.133a1.488,1.488,0,0,0-1.488-1.488h-43.8Zm42.312,7.1v5.748a6.688,6.688,0,0,1-5.455-5.748Zm-49.406,0h5.455a6.688,6.688,0,0,1-5.455,5.748Zm0,16.951c0-.006,0-.011,0-.017V92.377a9.666,9.666,0,0,0,8.447-8.756H56.679a9.666,9.666,0,0,0,8.447,8.756v8.515l-7.615,7.2a5.744,5.744,0,0,0-5.459-3.982H46.44A8.755,8.755,0,1,0,31.93,99.9a15.545,15.545,0,0,0-7.477-.662A15.954,15.954,0,0,0,15.72,103.7v-3.132Zm30.486-2.822a5.783,5.783,0,1,1-5.783-5.787A5.792,5.792,0,0,1,46.206,97.749Zm26.05,8.136L60.683,119.441q-.031.036-.059.074c-2.364,3.154-9.026,5.351-13.527,5.351h-16.1c-4.1,0-7.3-1.8-11-3.878-1.365-.766-2.768-1.555-4.275-2.28V108.437a13.2,13.2,0,0,1,9.2-6.265A12.786,12.786,0,0,1,35.4,105.311l.029.025c.131.11.258.225.392.347a4.243,4.243,0,0,0,2.987,1.4H52.051a2.76,2.76,0,0,1,0,5.519H30.238a1.488,1.488,0,1,0,0,2.976H52.051a5.738,5.738,0,0,0,5.031-2.988l11.84-11.2c.022-.021.043-.042.063-.064a2.383,2.383,0,0,1,2.1-.755,2.415,2.415,0,0,1,1.827,1.248A4.168,4.168,0,0,1,72.257,105.885Z" transform="translate(0 -73.547)" fill="#d6ca6b" stroke="#d6ca6b" stroke-width="0.75"/>
      </g>
    </g>
  </g>
</svg>
