<svg id="export" xmlns="http://www.w3.org/2000/svg" width="17.998" height="17.998" viewBox="0 0 17.998 17.998">
  <g id="Group_3118" data-name="Group 3118" transform="translate(7.725 0)">
    <g id="Group_3117" data-name="Group 3117">
      <path id="Path_2427" data-name="Path 2427" d="M229.875.167A.565.565,0,0,0,229.427,0l-4.375.4a.563.563,0,0,0-.348.958L225.9,2.554l-5.965,5.964a.563.563,0,0,0,0,.8l.8.8a.563.563,0,0,0,.8,0l5.965-5.965,1.194,1.194a.565.565,0,0,0,.589.132.572.572,0,0,0,.206-.132.556.556,0,0,0,.162-.348l.4-4.375A.565.565,0,0,0,229.875.167Z" transform="translate(-219.768 -0.002)" fill="#00B398"/>
    </g>
  </g>
  <g id="Group_3120" data-name="Group 3120">
    <g id="Group_3119" data-name="Group 3119">
      <path id="Path_2428" data-name="Path 2428" d="M15.749,6.749v9H2.25V2.25h9V0H1.125A1.124,1.124,0,0,0,0,1.125V16.873A1.125,1.125,0,0,0,1.125,18H16.873A1.125,1.125,0,0,0,18,16.873V6.749Z" fill="#00B398"/>
    </g>
  </g>
</svg>
