<svg xmlns="http://www.w3.org/2000/svg" viewBox="0 0 20 19" fill="#a0a0a0"><g id="Layer_2" data-name="Layer 2"><g id="Layer_25" data-name="Layer 25"><path d="M12,8A4,4,0,1,0,8,4,4,4,0,0,0,12,8Z"/><path d="M12.81,16.81l-1,1-.66-.67,1-1-1.82-1.82-1,1-.67-.67,1-1L7.84,11.84l-1,1-.66-.66,1-1L5.34,9.34l-1,1-.67-.67,1-1L2.86,6.86l-1,1L1.2,7.19l1-1L0,4V17.12A1.88,1.88,0,0,0,1.88,19H15Zm-10-.62v-5.4l5.4,5.4Z"/><path d="M12,10a13.45,13.45,0,0,0-2.68.32L15,16h5V14C20,11.34,14.67,10,12,10Z"/></g></g></svg>