<svg xmlns="http://www.w3.org/2000/svg" xmlns:xlink="http://www.w3.org/1999/xlink" width="220" height="178" viewBox="0 0 220 178">
  <defs>
    <clipPath id="clip-path">
      <rect id="Rectangle_2326" data-name="Rectangle 2326" width="196" height="152" transform="translate(-0.222 -0.374)" fill="#fff"/>
    </clipPath>
    <linearGradient id="linear-gradient" x1="1.491" y1="0.5" x2="-0.431" y2="0.5" gradientUnits="objectBoundingBox">
      <stop offset="0" stop-color="#eebe63"/>
      <stop offset="1" stop-color="#dc3b57"/>
    </linearGradient>
    <linearGradient id="linear-gradient-2" x1="1.38" y1="0.5" x2="-0.399" y2="0.5" xlink:href="#linear-gradient"/>
    <linearGradient id="linear-gradient-3" x1="2.127" y1="0.5" x2="-0.615" y2="0.5" xlink:href="#linear-gradient"/>
    <linearGradient id="linear-gradient-4" y1="0.5" x2="1" y2="0.5" gradientUnits="objectBoundingBox">
      <stop offset="0" stop-color="#81e4c6"/>
      <stop offset="1" stop-color="#00adb3"/>
    </linearGradient>
    <linearGradient id="linear-gradient-5" y1="0.5" x2="1" y2="0.5" gradientUnits="objectBoundingBox">
      <stop offset="0" stop-color="#74dfc4"/>
      <stop offset="1" stop-color="#0db2b5"/>
    </linearGradient>
    <linearGradient id="linear-gradient-6" y1="0.5" x2="1" y2="0.5" gradientUnits="objectBoundingBox">
      <stop offset="0" stop-color="#e59148"/>
      <stop offset="1" stop-color="#f1cc52"/>
    </linearGradient>
    <linearGradient id="linear-gradient-7" y1="0.5" x2="1" y2="0.5" gradientUnits="objectBoundingBox">
      <stop offset="0" stop-color="#b37239"/>
      <stop offset="1" stop-color="#f1cc52"/>
    </linearGradient>
  </defs>
  <g id="Group_2810" data-name="Group 2810" transform="translate(-341 -263.626)">
    <g id="Group_2643" data-name="Group 2643" transform="translate(365.222 264)">
      <g id="Mask_Group_218" data-name="Mask Group 218" transform="translate(0 0)" clip-path="url(#clip-path)">
        <path id="Path_2246" data-name="Path 2246" d="M902.274,472.1c15.448,2.915,22.813,14.287,31.87,21.944,10.663,9.014,23.626,4.019,34.7,2.428,19.914-2.858,26.683,18.121,48.6,15.341,20.971-2.66,29.156-28.93,16.118-43.973s-12.611-19.585-9.613-30.226,8.275-30.56-12.716-32.359c-18.043-1.546-28.471-6.054-36.413-13.889s-37.192-29.409-50.837,3.363c-6.52,15.661-10.451,21.17-25.1,25.187S874,435,873.539,447.519C873.1,459.377,881.642,468.212,902.274,472.1Z" transform="translate(-843.602 -376.24)" fill="#0094ff" opacity="0.17" style="mix-blend-mode: multiply;isolation: isolate"/>
      </g>
      <g id="Group_2642" data-name="Group 2642" transform="translate(2.654 32.107)">
        <rect id="Rectangle_2301" data-name="Rectangle 2301" width="58.202" height="1.946" transform="translate(60.091 73.244)" fill="#fff"/>
        <rect id="Rectangle_2302" data-name="Rectangle 2302" width="43.225" height="1.947" transform="translate(60.091 64.158)" fill="url(#linear-gradient)"/>
        <rect id="Rectangle_2303" data-name="Rectangle 2303" width="46.706" height="1.947" transform="translate(60.091 68.7)" fill="url(#linear-gradient-2)"/>
        <rect id="Rectangle_2304" data-name="Rectangle 2304" width="30.305" height="1.946" transform="translate(60.091 73.244)" fill="url(#linear-gradient-3)"/>
        <g id="Group_2548" data-name="Group 2548" transform="translate(24.479 8.991)">
          <path id="Rectangle_2305" data-name="Rectangle 2305" d="M36.734,0H60.814A36.738,36.738,0,0,1,97.552,36.738V52.594A36.734,36.734,0,0,1,60.818,89.329H36.738A36.738,36.738,0,0,1,0,52.59V36.734A36.734,36.734,0,0,1,36.734,0Z" transform="translate(0 0)" fill="#f4f4f4" style="mix-blend-mode: hard-light;isolation: isolate"/>
          <g id="Group_2541" data-name="Group 2541" transform="translate(9.507 8.711)">
            <g id="Group_2537" data-name="Group 2537">
              <path id="Path_2201" data-name="Path 2201" d="M306.845,792.007a13.712,13.712,0,0,0-7.445-17.2c-.279-.121-.565-.233-.855-.337a13.722,13.722,0,1,0,8.3,17.541Zm-16.387,5.067a10.288,10.288,0,1,1,6.929-19.374c.218.078.432.164.641.254a10.288,10.288,0,0,1-7.571,19.12Z" transform="translate(-280.198 -773.661)" fill="#0094ff"/>
            </g>
            <g id="Group_2538" data-name="Group 2538" transform="translate(0.006 0.626)">
              <path id="Path_2202" data-name="Path 2202" d="M290.884,780.287l-1.024-3.278a13.739,13.739,0,0,0-9.629,12.69l3.433.1a10.306,10.306,0,0,1,7.22-9.514Z" transform="translate(-280.231 -777.009)" fill="#0a77c5"/>
            </g>
            <g id="Group_2539" data-name="Group 2539" transform="translate(9.635)">
              <path id="Path_2203" data-name="Path 2203" d="M339.916,777.953l1.371-3.15c-.279-.121-.565-.233-.855-.337a13.665,13.665,0,0,0-8.711-.179l1.024,3.278a10.253,10.253,0,0,1,6.531.134C339.493,777.778,339.706,777.863,339.916,777.953Z" transform="translate(-331.72 -773.661)" fill="#027ad1"/>
            </g>
            <g id="Group_2540" data-name="Group 2540" transform="translate(17.831 1.143)">
              <path id="Path_2204" data-name="Path 2204" d="M380.331,781.9a13.639,13.639,0,0,0-3.416-2.128l-1.371,3.15a10.215,10.215,0,0,1,2.562,1.6Z" transform="translate(-375.544 -779.771)" fill="#078ae9"/>
            </g>
          </g>
          <g id="Group_2542" data-name="Group 2542" transform="translate(75.068 54.916)">
            <rect id="Rectangle_2306" data-name="Rectangle 2306" width="4.762" height="16.311" fill="#0094ff"/>
          </g>
          <g id="Group_2543" data-name="Group 2543" transform="translate(67.988 59.491)">
            <rect id="Rectangle_2307" data-name="Rectangle 2307" width="4.762" height="11.736" fill="#0094ff"/>
          </g>
          <g id="Group_2544" data-name="Group 2544" transform="translate(81.936 47.355)">
            <rect id="Rectangle_2308" data-name="Rectangle 2308" width="4.762" height="23.871" fill="#0094ff"/>
          </g>
          <g id="Group_2545" data-name="Group 2545" transform="translate(40.893 34.915)">
            <path id="Path_2205" data-name="Path 2205" d="M493.058,914.292l-.084-.515-12.568,2.058-4.074,8.683-13.55.92-4.389,6.474-10.359-.257-.013.521,10.644.264,4.406-6.5,13.6-.923,4.088-8.713Z" transform="translate(-448.021 -913.776)" fill="#0094ff"/>
          </g>
          <path id="Path_2206" data-name="Path 2206" d="M599.989,786.843h13.543a1.548,1.548,0,0,0,1.548-1.548h0a1.548,1.548,0,0,0-1.548-1.548H599.989a1.547,1.547,0,0,0-1.548,1.548h0A1.548,1.548,0,0,0,599.989,786.843Z" transform="translate(-529.417 -773.149)" fill="#0276c9"/>
          <path id="Path_2207" data-name="Path 2207" d="M599.989,815.724h13.543a1.548,1.548,0,0,0,1.548-1.548h0a1.549,1.549,0,0,0-1.548-1.549H599.989a1.548,1.548,0,0,0-1.548,1.549h0A1.548,1.548,0,0,0,599.989,815.724Z" transform="translate(-529.417 -796.628)" fill="#008cf1"/>
          <path id="Path_2208" data-name="Path 2208" d="M599.989,844.607h13.543a1.548,1.548,0,0,0,1.548-1.548h0a1.548,1.548,0,0,0-1.548-1.548H599.989a1.548,1.548,0,0,0-1.548,1.548h0A1.548,1.548,0,0,0,599.989,844.607Z" transform="translate(-529.417 -820.111)" fill="#0094ff"/>
          <g id="Group_2546" data-name="Group 2546" transform="translate(38.311 11.996)">
            <path id="Path_2209" data-name="Path 2209" d="M441.96,795.6h-7.746v-.3h7.623l4.078-4.078h4.995v.3h-4.872Z" transform="translate(-434.214 -791.225)" fill="#0094ff"/>
          </g>
          <g id="Group_2547" data-name="Group 2547" transform="translate(40.2 26.461)">
            <path id="Path_2210" data-name="Path 2210" d="M457.514,872.013h-9.969l-3.229-3.23.21-.211,3.143,3.143h9.845Z" transform="translate(-444.316 -868.572)" fill="#0094ff"/>
          </g>
          <rect id="Rectangle_2309" data-name="Rectangle 2309" width="10.333" height="1.268" transform="translate(50.749 13.965)" fill="#0094ff"/>
          <rect id="Rectangle_2310" data-name="Rectangle 2310" width="8.318" height="1.268" transform="translate(47.597 26.892)" fill="#0094ff"/>
        </g>
        <g id="Group_2553" data-name="Group 2553" transform="translate(0 41.83)">
          <path id="Path_2211" data-name="Path 2211" d="M101.107,902.8c2.6-1.245,5.194,7.041,5.194,7.041,4.424,5.847,10.607-1.931,10,6.809-1.058,15.292,17.6,4.809,8.994,20.775s7.6,9.027,2.252,21.9,1.584,28.229-6.466,21.918c0,0-7.088-15.544-14.4-20.351s4.379-10.515,2.092-17.047c-3.322-9.487-11.326-9.115-5.555-19.309S92.259,907.034,101.107,902.8Z" transform="translate(-98.47 -902.674)" fill="url(#linear-gradient-4)"/>
          <g id="Group_2549" data-name="Group 2549" transform="translate(10.478 16.213)">
            <path id="Path_2212" data-name="Path 2212" d="M169.182,1045.878c-3.489-2.453-7.573-19.555-7.816-29.74-.125-5.218-1.667-7.391-3.028-9.309-1.3-1.833-2.424-3.417-1.77-7.052,1.251-6.947-2.037-9.947-2.07-9.976l.38-.434c.147.128,3.57,3.221,2.258,10.511-.612,3.4.4,4.817,1.672,6.616,1.339,1.887,3.005,4.235,3.134,9.629.261,10.93,4.437,27.077,7.571,29.281Z" transform="translate(-154.498 -989.368)" fill="#fff"/>
          </g>
          <g id="Group_2550" data-name="Group 2550" transform="translate(22.145 39.736)">
            <path id="Path_2213" data-name="Path 2213" d="M221.206,1149.405a7.425,7.425,0,0,1-1.475-.16,3.219,3.219,0,0,1-2.622-2.109c-.94-2.689,1.239-7.06,3.008-9.166a13.454,13.454,0,0,0,2.674-8.669c-.053-.841-.14-1.619-.217-2.3-.223-1.985-.383-3.419.469-4.377.751-.844,2.2-1.21,4.849-1.222a9.6,9.6,0,0,0,7.955-3.489,8.409,8.409,0,0,1,1.937-1.668h0c2.314-1.264,4.765-1.45,5.829-.442.5.478.931,1.416.094,3.163a12.181,12.181,0,0,1-2.553,3.423c-1.072,1.094-1.78,1.816-1.411,3.256.087.338.187.679.286,1.022.716,2.448,1.528,5.223-2.663,7.106-.889.4-1.7.718-2.414,1-2.925,1.148-4.691,1.841-6.684,6.049-.386.815-.727,1.587-1.056,2.333C225.643,1146.712,224.455,1149.4,221.206,1149.405Zm16.857-32.659a7.9,7.9,0,0,0-1.8,1.561,10.1,10.1,0,0,1-8.37,3.668c-2.435.011-3.8.328-4.421,1.029-.681.765-.533,2.092-.327,3.928.078.694.166,1.479.22,2.333a13.781,13.781,0,0,1-2.808,9.076c-1.751,2.085-3.734,6.235-2.905,8.605a2.677,2.677,0,0,0,2.19,1.734c3.947.8,5.036-1.671,6.841-5.763.331-.75.674-1.526,1.062-2.347,2.091-4.414,4.042-5.18,7-6.339.709-.278,1.512-.593,2.388-.986,3.732-1.678,3.059-3.981,2.346-6.419-.1-.348-.2-.7-.292-1.04-.449-1.755.436-2.66,1.558-3.8a11.572,11.572,0,0,0,2.444-3.267c.379-.792.692-1.868.028-2.5-.871-.826-3.088-.6-5.155.529Z" transform="translate(-216.884 -1115.151)" fill="#00c4b4"/>
          </g>
          <g id="Group_2551" data-name="Group 2551" transform="translate(24.479 44.345)">
            <path id="Path_2214" data-name="Path 2214" d="M229.938,1172.771l-.577-.03c.028-.542.756-13.3,5.879-17.039a20.511,20.511,0,0,0,8.239-11.457c.994-3.483,6.057-4.413,6.272-4.451l.1.568c-.049.009-4.923.906-5.818,4.042a21.049,21.049,0,0,1-8.453,11.765C230.676,1159.743,229.944,1172.641,229.938,1172.771Z" transform="translate(-229.361 -1139.794)" fill="#00c4b4"/>
          </g>
          <path id="Path_2215" data-name="Path 2215" d="M209.488,971.583c-3.642-1.248-2.885,5.771-4.424,10.966s-17.12,2.265-10.58,15.271-8.272,4.35-3.848,15.7.385,23.487,5.194,20.4,2.7-17.379,7.7-19.078,5.817-3.679.865-8.3,12.976-9.2,8.552-18.522S213.7,973.027,209.488,971.583Z" transform="translate(-172.717 -958.577)" fill="url(#linear-gradient-5)"/>
          <g id="Group_2552" data-name="Group 2552" transform="translate(23.082 29.287)">
            <path id="Path_2216" data-name="Path 2216" d="M224.156,1104.785c-.458-1.942-4.369-19.041-.72-21.107,3.217-1.821,3.138-8.906,2.636-15.6-.444-5.922,7.162-8.69,7.486-8.805l.193.544c-.075.027-7.514,2.737-7.1,8.219.515,6.871.571,14.161-2.927,16.142-2.772,1.57-.22,15.311,1,20.473Z" transform="translate(-221.894 -1059.275)" fill="#fff"/>
          </g>
          <path id="Path_2217" data-name="Path 2217" d="M182.537,1270.075l-5.2,19.727h-11.62l-5.2-19.727Z" transform="translate(-148.913 -1201.366)" fill="url(#linear-gradient-6)"/>
          <path id="Path_2218" data-name="Path 2218" d="M182.537,1270.075s-11.447,2.148-11.447,19.727h-5.373l-5.2-19.727Z" transform="translate(-148.913 -1201.366)" fill="url(#linear-gradient-7)"/>
        </g>
        <g id="Group_2554" data-name="Group 2554" transform="translate(15.488 0)" opacity="0.1">
          <path id="Path_2219" data-name="Path 2219" d="M199.266,679v1.673H182.958v16.309h-1.674V679Z" transform="translate(-181.284 -679.002)" fill="#0094ff"/>
        </g>
        <g id="Group_2641" data-name="Group 2641" transform="translate(23.154 49.89)">
          <g id="Group_2555" data-name="Group 2555" transform="translate(26.607 35.022)">
            <rect id="Rectangle_2311" data-name="Rectangle 2311" width="16.382" height="0.972" fill="#dcd0c8"/>
          </g>
          <g id="Group_2556" data-name="Group 2556" transform="translate(28.803 38.525)">
            <rect id="Rectangle_2312" data-name="Rectangle 2312" width="1.435" height="44.226" transform="translate(1.435 44.226) rotate(180)" fill="#6d6865"/>
          </g>
          <g id="Group_2557" data-name="Group 2557" transform="translate(40.426 34.745)">
            <rect id="Rectangle_2313" data-name="Rectangle 2313" width="11.387" height="1.389" fill="#c6bbb5"/>
          </g>
          <g id="Group_2558" data-name="Group 2558" transform="translate(43.963 22.897)">
            <rect id="Rectangle_2314" data-name="Rectangle 2314" width="4.312" height="13.097" fill="#948c87"/>
          </g>
          <g id="Group_2559" data-name="Group 2559" transform="translate(20.731 36.011)">
            <rect id="Rectangle_2315" data-name="Rectangle 2315" width="63.092" height="2.514" fill="#a98e75"/>
          </g>
          <g id="Group_2560" data-name="Group 2560" transform="translate(3.498 16.566)">
            <path id="Path_2220" data-name="Path 2220" d="M246.1,1038.579s-.69,9.677,1.2,10.835c1.184.725,5.907,3.172,5.767,3.631s-2.666,4.083-2.666,4.083-9.071-5.974-9.364-7.857c-.286-1.839.447-14.168,1.694-14.737.934-.425,1.426-.073,2.6.8A2.754,2.754,0,0,1,246.1,1038.579Z" transform="translate(-240.979 -1034.354)" fill="#ebb35c"/>
          </g>
          <g id="Group_2563" data-name="Group 2563" transform="translate(16.076 76.459)">
            <g id="Group_2562" data-name="Group 2562">
              <g id="Group_2561" data-name="Group 2561">
                <path id="Path_2221" data-name="Path 2221" d="M311.946,1354.863s-.282,1.958-.317,2.252-3.138-.173-3.138-.173l-.251-2.331A18.433,18.433,0,0,1,311.946,1354.863Z" transform="translate(-308.24 -1354.61)" fill="#454971"/>
              </g>
            </g>
          </g>
          <g id="Group_2566" data-name="Group 2566" transform="translate(15.591 78.583)">
            <g id="Group_2565" data-name="Group 2565">
              <g id="Group_2564" data-name="Group 2564">
                <path id="Path_2222" data-name="Path 2222" d="M309.553,1366.1a8.375,8.375,0,0,0,1.934,1.694c.951.515,2.445.718,3.007,1.25.406.384,1.478,2.039-2.471,2.006s-5.853.234-6.276-.4.612-4.681.612-4.681A8.356,8.356,0,0,0,309.553,1366.1Z" transform="translate(-305.646 -1365.967)" fill="#2e3048"/>
              </g>
            </g>
          </g>
          <g id="Group_2569" data-name="Group 2569" transform="translate(35.956 76.478)">
            <g id="Group_2568" data-name="Group 2568">
              <g id="Group_2567" data-name="Group 2567">
                <path id="Path_2223" data-name="Path 2223" d="M418.243,1354.964s-.282,1.958-.317,2.252-3.138-.173-3.138-.173l-.251-2.331A18.365,18.365,0,0,1,418.243,1354.964Z" transform="translate(-414.537 -1354.711)" fill="#454971"/>
              </g>
            </g>
          </g>
          <g id="Group_2572" data-name="Group 2572" transform="translate(35.47 78.601)">
            <g id="Group_2571" data-name="Group 2571">
              <g id="Group_2570" data-name="Group 2570">
                <path id="Path_2224" data-name="Path 2224" d="M415.85,1366.2a8.366,8.366,0,0,0,1.934,1.693c.95.515,4.449.938,5.012,1.47.406.384,1.081,1.932-4.476,1.786-3.948-.1-5.853.234-6.276-.4s.612-4.681.612-4.681A7.586,7.586,0,0,0,415.85,1366.2Z" transform="translate(-411.943 -1366.066)" fill="#2e3048"/>
              </g>
            </g>
          </g>
          <g id="Group_2575" data-name="Group 2575" transform="translate(6.962 42.89)">
            <g id="Group_2574" data-name="Group 2574">
              <g id="Group_2573" data-name="Group 2573">
                <path id="Path_2225" data-name="Path 2225" d="M262.319,1175.114s11.281,1.908,13.828,2.308,16.362,3.838,18.09,4.885c1.375.835-.722,20.859-1.211,28.5h-5.441l-.394-22.918c-6.529.163-11.189-1.527-15.944-.805s-8.719,1.748-11.74-2.3C259.507,1184.779,259.395,1176,262.319,1175.114Z" transform="translate(-259.506 -1175.114)" fill="#2e3048"/>
              </g>
            </g>
          </g>
          <g id="Group_2578" data-name="Group 2578" transform="translate(4.744 45.329)">
            <g id="Group_2577" data-name="Group 2577">
              <g id="Group_2576" data-name="Group 2576">
                <path id="Path_2226" data-name="Path 2226" d="M263.795,1221.426l-5.3-.328-.517-22.608a32.235,32.235,0,0,1-6.048-.384l-4.282-9.952c3.752.751,15.774,3.783,17.376,4.754C266.4,1193.743,264.284,1213.786,263.795,1221.426Z" transform="translate(-247.645 -1188.154)" fill="#2e3048"/>
              </g>
            </g>
          </g>
          <g id="Group_2581" data-name="Group 2581" transform="translate(12.128 0.409)">
            <g id="Group_2580" data-name="Group 2580">
              <g id="Group_2579" data-name="Group 2579">
                <path id="Path_2227" data-name="Path 2227" d="M289.967,948.158s4.135-1.143,5.713,2.067.862,9.295-1.221,9.868-5.081-.087-5.947-2.085a15.331,15.331,0,0,1-1.348-6.675A4.029,4.029,0,0,1,289.967,948.158Z" transform="translate(-287.127 -947.96)" fill="#dba585"/>
              </g>
            </g>
          </g>
          <g id="Group_2584" data-name="Group 2584" transform="translate(12.844 9.088)">
            <g id="Group_2583" data-name="Group 2583">
              <g id="Group_2582" data-name="Group 2582">
                <path id="Path_2228" data-name="Path 2228" d="M296.492,997.183a12.658,12.658,0,0,0,.224,2.963c.27.52-5.758.39-5.758.39a12.238,12.238,0,0,0,.411-5.429C290.836,992.633,296.492,997.183,296.492,997.183Z" transform="translate(-290.958 -994.37)" fill="#dba585"/>
              </g>
            </g>
          </g>
          <g id="Group_2587" data-name="Group 2587" transform="translate(11.888 0)">
            <g id="Group_2586" data-name="Group 2586">
              <g id="Group_2585" data-name="Group 2585">
                <path id="Path_2229" data-name="Path 2229" d="M286.886,954.672s.323.656,1.883.55,3.618-1.987,4.28-2.156.7-.545.7-.545l.35.623.679.1s-.461-1.887.544-2.551-.453-6.014-5.54-4.723c0,0-3.883.711-3.935,2.879S286.133,953.524,286.886,954.672Z" transform="translate(-285.844 -945.773)" fill="#3e4148"/>
              </g>
            </g>
          </g>
          <g id="Group_2590" data-name="Group 2590" transform="translate(12.923 13.196)">
            <g id="Group_2589" data-name="Group 2589">
              <g id="Group_2588" data-name="Group 2588">
                <path id="Path_2230" data-name="Path 2230" d="M297.376,1017.938s-.017-.994-.468-1.09-4.738-.684-5.291-.467l-.237,1.313S292.446,1018.35,297.376,1017.938Z" transform="translate(-291.38 -1016.333)" fill="#dcd0c8"/>
              </g>
            </g>
          </g>
          <g id="Group_2593" data-name="Group 2593" transform="translate(18.424 5.199)">
            <g id="Group_2592" data-name="Group 2592">
              <g id="Group_2591" data-name="Group 2591">
                <path id="Path_2231" data-name="Path 2231" d="M322.53,974.678c-.116-.815-1.042-1.752-1.573-.482s.359,3.118.954,3.019S322.687,975.784,322.53,974.678Z" transform="translate(-320.795 -973.574)" fill="#dba585"/>
              </g>
            </g>
          </g>
          <g id="Group_2596" data-name="Group 2596" transform="translate(36.869 26.549)">
            <g id="Group_2595" data-name="Group 2595">
              <g id="Group_2594" data-name="Group 2594">
                <path id="Path_2232" data-name="Path 2232" d="M419.428,1087.735h-.007C419.452,1087.748,419.456,1087.749,419.428,1087.735Z" transform="translate(-419.421 -1087.734)" fill="#363957"/>
              </g>
            </g>
          </g>
          <g id="Group_2599" data-name="Group 2599" transform="translate(11.236 1.188)">
            <g id="Group_2598" data-name="Group 2598">
              <g id="Group_2597" data-name="Group 2597">
                <path id="Path_2233" data-name="Path 2233" d="M284.883,952.129s-5.042-.237-.88,7.633Z" transform="translate(-282.357 -952.128)" fill="#3e4148"/>
              </g>
            </g>
          </g>
          <g id="Group_2601" data-name="Group 2601" transform="translate(2.528 75.291)">
            <g id="Group_2600" data-name="Group 2600">
              <path id="Path_2234" data-name="Path 2234" d="M235.794,1354.358l.376,1.056,15.847-4.911-.76-2.136Z" transform="translate(-235.794 -1348.366)" fill="#8c8581"/>
            </g>
          </g>
          <g id="Group_2603" data-name="Group 2603" transform="translate(17.493 59.446)">
            <g id="Group_2602" data-name="Group 2602">
              <rect id="Rectangle_2316" data-name="Rectangle 2316" width="1.801" height="17.23" fill="#8c8581"/>
            </g>
          </g>
          <g id="Group_2605" data-name="Group 2605" transform="translate(13.082 58.531)">
            <g id="Group_2604" data-name="Group 2604">
              <rect id="Rectangle_2317" data-name="Rectangle 2317" width="10.624" height="1.016" fill="#5d5955"/>
            </g>
          </g>
          <g id="Group_2607" data-name="Group 2607" transform="translate(18.176 75.157)">
            <g id="Group_2606" data-name="Group 2606">
              <path id="Path_2235" data-name="Path 2235" d="M335.69,1353.776l-.374,1.056-15.847-4.911.7-2.27Z" transform="translate(-319.468 -1347.651)" fill="#8c8581"/>
            </g>
          </g>
          <g id="Group_2609" data-name="Group 2609" transform="translate(18.176 75.157)">
            <g id="Group_2608" data-name="Group 2608">
              <path id="Path_2236" data-name="Path 2236" d="M324.525,1354.719v1.227l-5.057-6.025.7-2.27Z" transform="translate(-319.468 -1347.651)" fill="#8c8581"/>
            </g>
          </g>
          <g id="Group_2611" data-name="Group 2611" transform="translate(32.917 81.269)">
            <g id="Group_2610" data-name="Group 2610">
              <path id="Path_2237" data-name="Path 2237" d="M401.254,1381.815a1.481,1.481,0,1,1-1.481-1.481A1.481,1.481,0,0,1,401.254,1381.815Z" transform="translate(-398.292 -1380.334)" fill="#b9afaa"/>
            </g>
          </g>
          <g id="Group_2613" data-name="Group 2613" transform="translate(20.397 81.269)">
            <g id="Group_2612" data-name="Group 2612">
              <path id="Path_2238" data-name="Path 2238" d="M334.3,1381.815a1.481,1.481,0,1,1-1.481-1.481A1.481,1.481,0,0,1,334.3,1381.815Z" transform="translate(-331.343 -1380.334)" fill="#b9afaa"/>
            </g>
          </g>
          <g id="Group_2615" data-name="Group 2615" transform="translate(1.048 81.269)">
            <g id="Group_2614" data-name="Group 2614">
              <path id="Path_2239" data-name="Path 2239" d="M230.84,1381.815a1.481,1.481,0,1,1-1.481-1.481A1.481,1.481,0,0,1,230.84,1381.815Z" transform="translate(-227.878 -1380.334)" fill="#b9afaa"/>
            </g>
          </g>
          <g id="Group_2616" data-name="Group 2616" transform="translate(5.879 54.686)">
            <path id="Path_2240" data-name="Path 2240" d="M276.961,1242.033H255.637a1.922,1.922,0,0,1-1.922-1.923h0a1.922,1.922,0,0,1,1.922-1.922h21.323a1.922,1.922,0,0,1,1.923,1.922h0A1.922,1.922,0,0,1,276.961,1242.033Z" transform="translate(-253.715 -1238.188)" fill="#dcd0c8"/>
          </g>
          <g id="Group_2617" data-name="Group 2617" transform="translate(74.315 38.525)">
            <rect id="Rectangle_2318" data-name="Rectangle 2318" width="1.435" height="44.226" fill="#6d6865"/>
          </g>
          <g id="Group_2618" data-name="Group 2618" transform="translate(27.502 2.939)">
            <rect id="Rectangle_2319" data-name="Rectangle 2319" width="37.234" height="26.267" rx="4" fill="#b2a8a3"/>
          </g>
          <g id="Group_2619" data-name="Group 2619" transform="translate(28.96 4.358)">
            <rect id="Rectangle_2320" data-name="Rectangle 2320" width="34.318" height="20.731" fill="#f4fffe"/>
          </g>
          <g id="Group_2620" data-name="Group 2620" transform="translate(58.986 25.978)">
            <path id="Path_2241" data-name="Path 2241" d="M540.453,1085.75a1.43,1.43,0,1,1-1.383-1.068A1.256,1.256,0,0,1,540.453,1085.75Z" transform="translate(-537.687 -1084.682)" fill="#8c8480"/>
          </g>
          <g id="Group_2621" data-name="Group 2621" transform="translate(43.967 32.669)">
            <path id="Path_2242" data-name="Path 2242" d="M467.238,1123.834v-.468s-.657-2.908-5.305-2.908-4.554,3.375-4.554,3.375Z" transform="translate(-457.378 -1120.459)" fill="#948c87"/>
          </g>
          <g id="Group_2623" data-name="Group 2623" transform="translate(42.885 31.3)">
            <g id="Group_2622" data-name="Group 2622">
              <path id="Path_2243" data-name="Path 2243" d="M452.614,1114.939a4.569,4.569,0,0,0,1.38-.3c.37-.224,2.584-1.712,3.1-1.474s3.979,1.3,3.86,1.8-.44.457-.685.368a17.783,17.783,0,0,0-2.978-.528s2.468.9,2.478,1.557-.516.818-.75,1.066-.515.866-1.151.912-3.739-1.032-4.378-1.081a15.614,15.614,0,0,1-1.9-.065A17.682,17.682,0,0,1,452.614,1114.939Z" transform="translate(-451.588 -1113.137)" fill="#dba585"/>
            </g>
          </g>
          <g id="Group_2626" data-name="Group 2626" transform="translate(4.482 14.556)">
            <g id="Group_2625" data-name="Group 2625">
              <g id="Group_2624" data-name="Group 2624">
                <path id="Path_2244" data-name="Path 2244" d="M267.29,1025.229c-3.22-.566-6.609-1.378-6.609-1.378l-6-.244a58.45,58.45,0,0,0-7.67,2.19c-.206.094-.207,4.91-.771,6.173l1.8,3.791s1.038,7.509,1.253,10.848c.1,1.534-.279,14.818-.279,14.818a23.181,23.181,0,0,0,4.631.716c4.092.452,14.317-.162,14.382-.645s-1.98-18-2.071-18.906c-.139-1.392.4-7.825.4-7.825.771,1.036,2.737,5.713,4.786,7.939,1.205,1.308,7.173,2.111,8.3,2.148,2.448.081,6.915.57,7.046.332.1-.143.389-3.966.109-4.059-.245-.082-8.54-.559-10.665-1.686-.777-.412-3.1-5.48-3.1-5.48S269.066,1026.027,267.29,1025.229Z" transform="translate(-246.245 -1023.606)" fill="#ebb35c"/>
              </g>
            </g>
          </g>
          <g id="Group_2627" data-name="Group 2627" transform="translate(0 27.952)">
            <path id="Rectangle_2321" data-name="Rectangle 2321" d="M8.679,0h0a8.677,8.677,0,0,1,8.677,8.677v6.686a8.675,8.675,0,0,1-8.675,8.675H8.676A8.676,8.676,0,0,1,0,15.362V8.679A8.679,8.679,0,0,1,8.679,0Z" fill="#dcd0c8"/>
          </g>
          <g id="Group_2628" data-name="Group 2628" transform="translate(5.233 43.299)">
            <path id="Path_2245" data-name="Path 2245" d="M259.306,1191.575a7.949,7.949,0,0,1-6.17-2.555c-3.469-3.831-2.846-10.564-2.818-10.849a.966.966,0,1,1,1.922.19c-.008.076-.561,6.181,2.331,9.366a6.022,6.022,0,0,0,4.734,1.916.966.966,0,0,1,0,1.931Z" transform="translate(-250.257 -1177.3)" fill="#dcd0c8"/>
          </g>
          <g id="Group_2631" data-name="Group 2631" transform="translate(31.393 6.01)">
            <g id="Group_2630" data-name="Group 2630">
              <g id="Group_2629" data-name="Group 2629">
                <path id="Rectangle_2322" data-name="Rectangle 2322" d="M.548,0H9.5a.548.548,0,0,1,.548.548v0a.548.548,0,0,1-.548.548H.547A.547.547,0,0,1,0,.549v0A.548.548,0,0,1,.548,0Z" fill="#dee6e4"/>
              </g>
            </g>
          </g>
          <g id="Group_2634" data-name="Group 2634" transform="translate(31.393 8.359)">
            <g id="Group_2633" data-name="Group 2633">
              <g id="Group_2632" data-name="Group 2632">
                <path id="Rectangle_2323" data-name="Rectangle 2323" d="M.546,0H9.506a.547.547,0,0,1,.547.547v0A.548.548,0,0,1,9.5,1.1H.547A.547.547,0,0,1,0,.548v0A.546.546,0,0,1,.546,0Z" fill="#dee6e4"/>
              </g>
            </g>
          </g>
          <g id="Group_2637" data-name="Group 2637" transform="translate(31.393 11.053)">
            <g id="Group_2636" data-name="Group 2636">
              <g id="Group_2635" data-name="Group 2635">
                <path id="Rectangle_2324" data-name="Rectangle 2324" d="M5.023,0h0a5.026,5.026,0,0,1,5.026,5.026V7.362a5.023,5.023,0,0,1-5.023,5.023h0A5.029,5.029,0,0,1,0,7.356V5.023A5.023,5.023,0,0,1,5.023,0Z" fill="#dee6e4"/>
              </g>
            </g>
          </g>
          <g id="Group_2640" data-name="Group 2640" transform="translate(43.475 6.01)">
            <g id="Group_2639" data-name="Group 2639">
              <g id="Group_2638" data-name="Group 2638">
                <path id="Rectangle_2325" data-name="Rectangle 2325" d="M8.715,0h.473A8.714,8.714,0,0,1,17.9,8.714v0a8.715,8.715,0,0,1-8.715,8.715H8.714A8.714,8.714,0,0,1,0,8.715v0A8.715,8.715,0,0,1,8.715,0Z" fill="#dee6e4"/>
              </g>
            </g>
          </g>
        </g>
      </g>
    </g>
    <rect id="Rectangle_2327" data-name="Rectangle 2327" width="175" height="178" transform="translate(341 263.626)" fill="none"/>
  </g>
</svg>
