<svg xmlns="http://www.w3.org/2000/svg" width="23.926" height="23.431" viewBox="0 0 23.926 23.431">
  <g id="no-process1" transform="translate(-2 -2.166)">
    <path id="Path_2280" data-name="Path 2280" d="M21.164,26.881a2.389,2.389,0,0,1-3.283,3.283,2.391,2.391,0,1,0,3.283-3.283Z" transform="translate(-9.548 -14.913)" fill="#a9a9a9"/>
    <g id="Group_2695" data-name="Group 2695" transform="translate(2 3.361)">
      <g id="Group_2694" data-name="Group 2694" transform="translate(0 0.465)">
        <path id="Path_2272" data-name="Path 2272" d="M14,8h5.982V9.353H14Z" transform="translate(-9.549 -7.59)" fill="#a9a9a9"/>
        <path id="Path_2273" data-name="Path 2273" d="M32,53.338h5.982V54.9H32Z" transform="translate(-20.371 -34.638)" fill="#a9a9a9"/>
        <path id="Path_2274" data-name="Path 2274" d="M39.358,18.734H32.474V17.183h6.884c2.312,0,3.364-1.694,3.364-4.067s-1.051-3.465-3.364-3.465H36.368V8h2.991a4.955,4.955,0,0,1,4.02,1.988,5.408,5.408,0,0,1,.738,3.129,6.261,6.261,0,0,1-1.394,4.4A4.925,4.925,0,0,1,39.358,18.734Z" transform="translate(-20.417 -7.999)" fill="#a9a9a9"/>
        <path id="Path_2275" data-name="Path 2275" d="M8.779,41.529H6.984A5.272,5.272,0,0,1,6.984,31h1.4v1.573h-1.4a2.714,2.714,0,0,0-1.823.6,3.641,3.641,0,0,0-1.639,3.092c0,2.441,1.664,3.756,3.976,3.756H8.38Z" transform="translate(-2 -21.776)" fill="#a9a9a9"/>
      </g>
      <path id="Path_2281" data-name="Path 2281" d="M25.9,8.459l-.6-.6.978-.978-.98-.978.6-.6,1.581,1.581Z" transform="translate(-16.146 -5.3)" fill="#a9a9a9"/>
      <path id="Path_2282" data-name="Path 2282" d="M31.211,31.672l-1.625-1.69,1.625-1.69.62.644-1.005,1.045,1.005,1.045Z" transform="translate(-18.251 -19.546)" fill="#a9a9a9"/>
      <path id="Path_2283" data-name="Path 2283" d="M43.926,54.612l-.633-.633,1.026-1.026-1.026-1.026.633-.633,1.659,1.659Z" transform="translate(-27.076 -32.953)" fill="#a9a9a9"/>
      <path id="Path_2284" data-name="Path 2284" d="M15.925,54.868l-.632-.681,1.024-1.106-1.024-1.106.632-.681,1.656,1.787Z" transform="translate(-9.992 -33.57)" fill="#a9a9a9"/>
    </g>
    <circle id="Ellipse_81" data-name="Ellipse 81" cx="2.508" cy="2.508" r="2.508" transform="translate(2.519 2.166)" fill="#a9a9a9"/>
    <circle id="Ellipse_82" data-name="Ellipse 82" cx="2.508" cy="2.508" r="2.508" transform="translate(13.888 2.166)" fill="#a9a9a9"/>
    <circle id="Ellipse_83" data-name="Ellipse 83" cx="2.508" cy="2.508" r="2.508" transform="translate(9.875 20.58)" fill="#a9a9a9"/>
    <circle id="Ellipse_85" data-name="Ellipse 85" cx="2.508" cy="2.508" r="2.508" transform="translate(7.869 11.529)" fill="#a9a9a9"/>
    <ellipse id="Ellipse_84" data-name="Ellipse 84" cx="2.508" cy="2.509" rx="2.508" ry="2.509" transform="translate(20.91 20.58)" fill="#a9a9a9"/>
  </g>
</svg>
