<svg xmlns="http://www.w3.org/2000/svg" width="20" height="23.433" viewBox="0 0 20 23.433">
  <g id="Group_4079" data-name="Group 4079" transform="translate(-309.565 -407.067)">
    <g id="Group_2217" data-name="Group 2217">
      <g id="Group_2216" data-name="Group 2216">
        <path id="Path_2123" data-name="Path 2123" d="M322.611,413.471a.383.383,0,0,0-.35-.258h-1.54v-5.707a.415.415,0,0,0-.385-.439H318.8a.415.415,0,0,0-.385.439v5.707h-1.54a.387.387,0,0,0-.351.258.487.487,0,0,0,.061.47l2.7,3.512a.363.363,0,0,0,.289.15.368.368,0,0,0,.29-.15l2.7-3.512A.484.484,0,0,0,322.611,413.471Z" fill="rgba(255,255,255,0.6)"/>
      </g>
    </g>
    <path id="Path_2124" data-name="Path 2124" d="M318.732,418.478v1.189h-7.5v-7.084a.417.417,0,0,1,.417-.417h3.917a.833.833,0,0,0,.833-.834h0a.833.833,0,0,0-.833-.833h-3.918a2.086,2.086,0,0,0-2.083,2.083v15.834a2.086,2.086,0,0,0,2.083,2.083h15.834a2.085,2.085,0,0,0,2.083-2.083V412.583a2.085,2.085,0,0,0-2.083-2.083h-4a.833.833,0,0,0-.834.833h0a.833.833,0,0,0,.834.834h4a.417.417,0,0,1,.417.417v7.083h-7.5v-1.189m0,0h-1.667m0,10.355h-7.083a.417.417,0,0,1-.417-.417v-7.083h7.5Zm9.167-.416a.417.417,0,0,1-.417.417H320.4v-7.5h7.5Z" fill="rgba(255,255,255,0.6)" style="isolation: isolate"/>
  </g>
</svg>
