<svg xmlns="http://www.w3.org/2000/svg" width="65.934" height="66.805" viewBox="0 0 65.934 66.805">
  <g id="gear" transform="translate(-3.336 0.001)">
    <circle id="Ellipse_121" data-name="Ellipse 121" cx="15.309" cy="15.309" r="15.309" transform="translate(38.651 36.186)" fill="#0094FF"/>
    <path id="Path_2433" data-name="Path 2433" d="M323.728,364.649a1.391,1.391,0,0,1-.985-.406l-5.567-5.567a1.392,1.392,0,0,1,1.968-1.968l4.582,4.582,8.757-8.757a1.392,1.392,0,0,1,1.968,1.968l-9.742,9.742A1.392,1.392,0,0,1,323.728,364.649Z" transform="translate(-272.551 -306.195)" fill="#fafafa"/>
    <path id="Path_2434" data-name="Path 2434" d="M59.191,10.739a2.945,2.945,0,0,0-3.619-1.3l-6.9,2.783a23.75,23.75,0,0,0-4.114-2.388L43.517,2.5A2.892,2.892,0,0,0,40.636,0H28.388A2.887,2.887,0,0,0,25.51,2.48L24.458,9.823a24.656,24.656,0,0,0-4.108,2.391L13.432,9.43a2.886,2.886,0,0,0-3.577,1.278L3.732,21.291a2.92,2.92,0,0,0,.715,3.761l5.845,4.571a21,21,0,0,0,0,4.771L4.442,38.969a2.939,2.939,0,0,0-.71,3.749L9.839,53.3a2.942,2.942,0,0,0,3.619,1.294l6.9-2.783a23.84,23.84,0,0,0,4.117,2.386l1.049,7.321a2.892,2.892,0,0,0,2.881,2.505h9.564a1.392,1.392,0,0,0,1.141-2.188,17.976,17.976,0,0,1-3.257-10.338,18.2,18.2,0,0,1,.754-5.158,1.392,1.392,0,0,0-.242-1.255,1.347,1.347,0,0,0-1.166-.526c-.156,0-.3.028-.679.072A12.557,12.557,0,1,1,47.048,32.04q0,.128,0,.257c-.022.148-.042.3-.05.451a1.392,1.392,0,0,0,1.787,1.409,17.475,17.475,0,0,1,8.4-.451,1.458,1.458,0,0,0,1.1-.337,1.573,1.573,0,0,0,.557-1.055c0-.044.017-.278.017-.309a22.419,22.419,0,0,0-.134-2.386l5.862-4.568a2.934,2.934,0,0,0,.71-3.749Z" transform="translate(0 0)" fill="#4b4b4b"/>
  </g>
</svg>
