<svg xmlns="http://www.w3.org/2000/svg" width="32" height="26" viewBox="0 0 32 26">
  <g id="Group_4008" data-name="Group 4008" transform="translate(-2 -6)">
    <rect id="Rectangle_2781" data-name="Rectangle 2781" width="2" height="2" transform="translate(4 8)" fill="#878787"/>
    <rect id="Rectangle_2782" data-name="Rectangle 2782" width="6" height="2" transform="translate(9 8)" fill="#878787"/>
    <rect id="Rectangle_2783" data-name="Rectangle 2783" width="6" height="2" transform="translate(18 8)" fill="#878787"/>
    <rect id="Rectangle_2784" data-name="Rectangle 2784" width="3" height="2" transform="translate(27 8)" fill="#878787"/>
    <path id="Path_2682" data-name="Path 2682" d="M26,16a8,8,0,1,0,8,8A8,8,0,0,0,26,16Zm5,9H27v4H25V25H21V23h4V19h2v4h4Z" fill="#0094FF"/>
    <path id="Path_2683" data-name="Path 2683" d="M17.349,29H17v-.663A9.944,9.944,0,0,1,16,24v5H8V24h8a9.944,9.944,0,0,1,1-4.337V18h1.014a10.018,10.018,0,0,1,.85-1H17V12h8v2.05c.329-.032.662-.05,1-.05V12h5v3.349a9.858,9.858,0,0,1,1,.665V8a2,2,0,0,0-2-2H4A2,2,0,0,0,2,8V28a2,2,0,0,0,2,2H18.014A9.858,9.858,0,0,1,17.349,29ZM26,7h4a1,1,0,0,1,1,1v3H26ZM17,7h8v4H17ZM8,7h8v4H8Zm0,5h8v5H8Zm0,6h8v5H8ZM7,29H4a1,1,0,0,1-1-1V24H7Zm0-6H3V18H7Zm0-6H3V12H7Zm0-6H3V8A1,1,0,0,1,4,7H7Z" fill="#878787"/>
  </g>
</svg>
