<svg xmlns="http://www.w3.org/2000/svg" width="17.75" height="19.541" viewBox="0 0 17.75 19.541">
  <g id="database" transform="translate(-351.659 -278.418)">
    <g id="Group_3244" data-name="Group 3244" transform="translate(351.659 278.418)">
      <g id="Group_3241" data-name="Group 3241" transform="translate(0.007)">
        <g id="Group_3240" data-name="Group 3240">
          <path id="Path_2452" data-name="Path 2452" d="M359.725,278.418c-4.445,0-8.049,1.313-8.049,2.935v2.407c0,1.622,3.6,2.935,8.049,2.935s8.049-1.313,8.049-2.935v-2.407C367.773,279.731,364.169,278.418,359.725,278.418Z" transform="translate(-351.676 -278.418)" fill="#a0a0a0"/>
        </g>
      </g>
      <g id="Group_3246" data-name="Group 3246" transform="translate(0 6.963)">
        <path id="Path_2456" data-name="Path 2456" d="M392.008,297.841c0-.773,0-1.431-.008-1.461a1.836,1.836,0,0,1-.752,1.036A6.733,6.733,0,0,1,392.008,297.841Z" transform="translate(-375.902 -296.38)" fill="#a0a0a0"/>
        <path id="Path_2457" data-name="Path 2457" d="M359.05,299.087c-3.939-.117-7.095-1.268-7.385-2.707-.015.073,0,3.977,0,3.977,0,1.33,2.423,2.451,5.746,2.812A6.7,6.7,0,0,1,359.05,299.087Z" transform="translate(-351.659 -296.38)" fill="#a0a0a0"/>
      </g>
      <path id="Path_2458" data-name="Path 2458" d="M357.514,313.6c-3.193-.331-5.589-1.361-5.84-2.605v3.977c0,1.622,3.6,2.934,8.049,2.934q.247,0,.489-.006A6.72,6.72,0,0,1,357.514,313.6Z" transform="translate(-351.668 -298.368)" fill="#a0a0a0"/>
      <path id="Path_2459" data-name="Path 2459" d="M376.082,301.745a5.137,5.137,0,1,0,5.137,5.137A5.137,5.137,0,0,0,376.082,301.745Zm2.467,6L376.3,310a.294.294,0,0,1-.422,0l-2.255-2.255a.294.294,0,0,1,.208-.505h1.66v-2.974a.595.595,0,0,1,1.19,0v2.974h1.66A.3.3,0,0,1,378.549,307.747Z" transform="translate(-363.469 -292.702)" fill="#a0a0a0"/>
    </g>
  </g>
</svg>
