<svg xmlns="http://www.w3.org/2000/svg" width="17.75" height="16.44" viewBox="0 0 17.75 16.44">
  <g id="fx-sign" transform="translate(0 -3.514)">
    <path id="Path_2447" data-name="Path 2447" d="M17.489,14.734a.9.9,0,0,0-.679-.308,1.04,1.04,0,0,0-.992.758c-.064.172-.083.264-.169.254a2.328,2.328,0,0,1-.9-1.519l-.463-2.163A5.528,5.528,0,0,1,15.4,10.4a1.18,1.18,0,0,1,.71-.267,2.19,2.19,0,0,0,1.145-.261A1.027,1.027,0,0,0,17.7,9.02a1.038,1.038,0,0,0-.326-.767,1.123,1.123,0,0,0-.794-.3A2.8,2.8,0,0,0,15,8.6a6.276,6.276,0,0,0-1.142,1.14,3.191,3.191,0,0,0-.33-.863.9.9,0,0,0-.822-.43l-.152,0-4.3.1L8.5,7.526A4.991,4.991,0,0,1,9.1,5.95c.119-.183.3-.4.492-.4a2.552,2.552,0,0,1,.482.067,5.79,5.79,0,0,0,1.164.179,1.15,1.15,0,0,0,.811-.308,1.064,1.064,0,0,0,.335-.789,1.086,1.086,0,0,0-.456-.881,1.7,1.7,0,0,0-1.061-.3,4.218,4.218,0,0,0-2.1.632,5.01,5.01,0,0,0-1.76,1.71,9.794,9.794,0,0,0-1.036,2.7H4.08L3.663,10.2h1.9L4.119,16a3.975,3.975,0,0,1-.578,1.559,1.123,1.123,0,0,1-.753.2,7.882,7.882,0,0,1-1-.067,4.862,4.862,0,0,0-.558-.044,1.31,1.31,0,0,0-.856.27A1.029,1.029,0,0,0,0,18.737a1.113,1.113,0,0,0,.474.913,1.768,1.768,0,0,0,1.084.3,4.524,4.524,0,0,0,3.136-1.336A7.547,7.547,0,0,0,6.7,14.851L7.843,10.2l3.892.066.418,1.8L11.3,13.323a7.615,7.615,0,0,1-.682.828,3.164,3.164,0,0,1-.321.315,1.068,1.068,0,0,0-.827-.452,1,1,0,0,0-.746.336,1.089,1.089,0,0,0-.3.753,1.125,1.125,0,0,0,.422.878,1.4,1.4,0,0,0,.929.322,2.315,2.315,0,0,0,1.37-.51,8.31,8.31,0,0,0,1.506-1.714A6.824,6.824,0,0,0,13.909,16.3a2.488,2.488,0,0,0,1.864.787,1.979,1.979,0,0,0,1.29-.493l.028-.02a1.415,1.415,0,0,0,.66-1.15A1.015,1.015,0,0,0,17.489,14.734Z" fill="#575b63"/>
  </g>
</svg>
