<svg xmlns="http://www.w3.org/2000/svg" width="76.36" height="53.691" viewBox="0 0 76.36 53.691">
  <g id="Group_4272" data-name="Group 4272" transform="translate(0 -38.81)" opacity="0.805">
    <g id="Group_4271" data-name="Group 4271" transform="translate(0 23.001)">
      <path id="Path_2873" data-name="Path 2873" d="M203.371,140.186a11.186,11.186,0,1,0-11.186,11.186,11.186,11.186,0,0,0,11.186-11.186ZM192.186,146.9a6.711,6.711,0,1,1,6.711-6.711,6.711,6.711,0,0,1-6.711,6.711Z" transform="translate(-154.005 -113.191)" fill="#46c1bc"/>
      <path id="Path_2874" data-name="Path 2874" d="M61.618,207.775a8.911,8.911,0,1,0-1.824,0,15.527,15.527,0,0,0-6.807,2,20.1,20.1,0,0,0-29.613,0,15.549,15.549,0,0,0-6.806-2,8.912,8.912,0,1,0-1.825,0A15.679,15.679,0,0,0,0,223.408v6.711a2.237,2.237,0,0,0,2.237,2.237H18.046a2.237,2.237,0,0,0,2.237,2.237H56.077a2.237,2.237,0,0,0,2.237-2.237H74.123a2.237,2.237,0,0,0,2.237-2.237v-6.711a15.679,15.679,0,0,0-14.742-15.633Zm-5.354-8.864a4.437,4.437,0,1,1,4.437,4.437A4.437,4.437,0,0,1,56.264,198.911Zm-45.041,0a4.437,4.437,0,1,1,4.437,4.437A4.437,4.437,0,0,1,11.223,198.911ZM4.474,227.882v-4.474A11.2,11.2,0,0,1,20.7,213.422c-3.619,6.309-2.424,11.694-2.656,14.46Zm49.366,2.237H22.52v-6.711a15.66,15.66,0,1,1,31.32,0Zm18.046-2.237H58.314c-.231-2.754.965-8.149-2.656-14.461a11.2,11.2,0,0,1,16.228,9.987Z" transform="translate(0 -165.093)" fill="#46c1bc"/>
    </g>
  </g>
</svg>
