<svg xmlns="http://www.w3.org/2000/svg" width="16.32" height="16.75" viewBox="0 0 16.32 16.75">
  <g id="letter-t-" transform="translate(-0.328 0)">
    <g id="c179_text" transform="translate(0.328 0)">
      <path id="Path_2448" data-name="Path 2448" d="M16.645,4.115a.853.853,0,0,1-.057.306c-.03.055-.115.1-.257.12a.472.472,0,0,1-.613-.35,4.446,4.446,0,0,0-1.275-2.214,6.25,6.25,0,0,0-3.588-.762q-1.037,0-1.138.225a.5.5,0,0,0-.037.213V14.119a1.411,1.411,0,0,0,.375,1.121A3.473,3.473,0,0,0,11.5,15.9c.317.068.636.131.678.157.3,0,.331.693-.247.693-.016.01-6.807-.005-6.807-.005a.39.39,0,0,1-.049-.671l.5-.225a6.288,6.288,0,0,0,1.451-.662,1.971,1.971,0,0,0,.425-1.413V1.654q0-.363-.451-.424c-.032-.01-.279-.013-.736-.013a5.95,5.95,0,0,0-3.5.826A5.042,5.042,0,0,0,1.252,4.294c-.142.341-.339.452-.589.337C.381,4.564.278,4.408.351,4.168A12.941,12.941,0,0,0,.789.354c0-.192.254-.384.763-.35L15.57.042c.465-.068.719.008.761.225A17.441,17.441,0,0,1,16.645,4.115Z" transform="translate(-0.328 0)" fill="#575b63"/>
    </g>
  </g>
</svg>
