<svg xmlns="http://www.w3.org/2000/svg" width="16.5" height="16.5" viewBox="0 0 16.5 16.5">
<path id="link" d="M9.7,12.718,7.152,15.27A4.189,4.189,0,0,1,1.227,9.346L3.78,6.793q.056-.056.114-.11a.387.387,0,0,1,.651.267q.009.232.039.464a.388.388,0,0,1-.109.325L2.048,10.166A3.029,3.029,0,0,0,6.332,14.45L8.884,11.9l.012-.012A3.029,3.029,0,0,0,7.995,7a.388.388,0,0,1-.23-.376,2,2,0,0,1,.091-.492A.384.384,0,0,1,8.369,5.9,4.189,4.189,0,0,1,9.7,12.718ZM6.794,9.7a4.164,4.164,0,0,0,1.335.9.384.384,0,0,0,.513-.235,2,2,0,0,0,.091-.492A.388.388,0,0,0,8.5,9.5a3.029,3.029,0,0,1-.9-4.888L7.615,4.6l2.552-2.552a3.029,3.029,0,1,1,4.284,4.284L12.024,8.757a.388.388,0,0,0-.109.325q.03.231.039.464a.387.387,0,0,0,.651.267q.058-.054.114-.11l2.552-2.552A4.189,4.189,0,1,0,9.347,1.226L6.794,3.779a4.2,4.2,0,0,0,0,5.925Z" transform="translate(0.001 0.002)" fill="#00b398"/>
</svg>
