<svg xmlns="http://www.w3.org/2000/svg" width="19.879" height="19.879" viewBox="0 0 19.879 19.879">
  <g id="Group_4080" data-name="Group 4080" transform="translate(0 0)">
    <g id="Group_4030" data-name="Group 4030" transform="translate(0 12.851)">
      <g id="Group_4029" data-name="Group 4029">
        <path id="Path_2693" data-name="Path 2693" d="M0,331v4.36a.582.582,0,0,0,.293.506l3.822,2.162v-4.7Z" transform="translate(0 -331)" fill="#a9a9a9"/>
      </g>
    </g>
    <g id="Group_4032" data-name="Group 4032" transform="translate(5.28 12.851)">
      <g id="Group_4031" data-name="Group 4031">
        <path id="Path_2694" data-name="Path 2694" d="M136,333.33v4.7l4.077-2.33V331Z" transform="translate(-136 -331)" fill="#a9a9a9"/>
      </g>
    </g>
    <g id="Group_4034" data-name="Group 4034" transform="translate(10.522 12.851)">
      <g id="Group_4033" data-name="Group 4033">
        <path id="Path_2695" data-name="Path 2695" d="M271,331v4.7l4.077,2.33v-4.7Z" transform="translate(-271 -331)" fill="#a9a9a9"/>
      </g>
    </g>
    <g id="Group_4036" data-name="Group 4036" transform="translate(15.763 12.851)">
      <g id="Group_4035" data-name="Group 4035">
        <path id="Path_2696" data-name="Path 2696" d="M406,333.33v4.7l3.822-2.162a.582.582,0,0,0,.293-.506V331Z" transform="translate(-406 -331)" fill="#a9a9a9"/>
      </g>
    </g>
    <g id="Group_4038" data-name="Group 4038" transform="translate(10.687 9.357)">
      <g id="Group_4037" data-name="Group 4037">
        <path id="Path_2697" data-name="Path 2697" d="M279.74,241l-4.494,2.247,4.494,2.568,4.533-2.568Z" transform="translate(-275.246 -241)" fill="#a9a9a9"/>
      </g>
    </g>
    <g id="Group_4040" data-name="Group 4040" transform="translate(5.445 0)">
      <g id="Group_4039" data-name="Group 4039">
        <path id="Path_2698" data-name="Path 2698" d="M145,.061a.583.583,0,0,0-.521,0l-4.234,2.186,4.494,2.568,4.494-2.568Z" transform="translate(-140.246 0)" fill="#a9a9a9"/>
      </g>
    </g>
    <g id="Group_4042" data-name="Group 4042" transform="translate(5.28 3.494)">
      <g id="Group_4041" data-name="Group 4041">
        <path id="Path_2699" data-name="Path 2699" d="M136,90v4.852l4.077,2.038V92.33Z" transform="translate(-136 -90)" fill="#a9a9a9"/>
      </g>
    </g>
    <g id="Group_4044" data-name="Group 4044" transform="translate(0.165 9.357)">
      <g id="Group_4043" data-name="Group 4043">
        <path id="Path_2700" data-name="Path 2700" d="M8.779,241l-4.533,2.247,4.533,2.568,4.494-2.568Z" transform="translate(-4.246 -241)" fill="#a9a9a9"/>
      </g>
    </g>
    <g id="Group_4046" data-name="Group 4046" transform="translate(10.522 3.494)">
      <g id="Group_4045" data-name="Group 4045">
        <path id="Path_2701" data-name="Path 2701" d="M271,92.33v4.56l4.077-2.038V90Z" transform="translate(-271 -90)" fill="#a9a9a9"/>
      </g>
    </g>
  </g>
</svg>
