<svg xmlns="http://www.w3.org/2000/svg" width="29.816" height="27.792" viewBox="0 0 29.816 27.792">
  <g id="no-source-table" transform="translate(0 -16.175)">
    <path id="Path_831" data-name="Path 831" d="M12.588,40.281V37.439h6.731v1.4l.9-.933.45-.468.429-.446-.42-.451h-.459v-.494l-.9-.965v1.459H12.588V33.6h5.348l-.834-.9H12.588V29.586h3.679a2.031,2.031,0,0,1,1.263-.9H12.589V25.323H19.32V28.63h.9V25.323h6.9V28.63h.9V17.222a1.048,1.048,0,0,0-1.046-1.047H1.047A1.048,1.048,0,0,0,0,17.222V40.157a1.045,1.045,0,0,0,.449.856v.165H.824a1.033,1.033,0,0,0,.223.025h16l.887-.922Zm7.629-23.208h6.755a.15.15,0,0,1,.15.15V20.24H20.217Zm0,4.063h6.905v3.291H20.217Zm-7.629-4.063h6.731v3.166H12.588Zm0,4.063h6.731v3.291H12.588ZM4.138,40.281H.969A.146.146,0,0,1,.9,40.157V37.439H4.138Zm0-3.739H.9V33.6H4.138v2.947Zm0-3.844H.9V29.587H4.138V32.7Zm0-4.009H.9V25.324H4.138V28.69Zm0-4.263H.9v-3.29H4.138v3.291ZM11.691,40.28H5.035V37.439h6.656v2.842Zm0-3.739H5.035V33.6h6.656v2.947Zm0-3.844H5.035v-3.11h6.656V32.7Zm0-4.009H5.035V25.324h6.656V28.69Zm0-4.263H5.035V21.136h6.656v3.291Zm0-4.188H5.035V17.072h6.656v3.166ZM28.2,32.687V31.472H20.311l4.645,5a.808.808,0,0,1-.009,1.107l-4.593,4.777H28.2v-.733a.806.806,0,1,1,1.612,0v1.539a.807.807,0,0,1-.806.805H18.461A.806.806,0,0,1,17.88,42.6l5.376-5.591-5.385-5.792a.806.806,0,0,1,.59-1.355H29.01a.807.807,0,0,1,.806.806v2.02a.806.806,0,0,1-1.612,0Z" fill="#575b63"/>
  </g>
</svg>
