<svg xmlns="http://www.w3.org/2000/svg" width="20" height="20" viewBox="0 0 20 20">
  <g id="pencil" transform="translate(0 0)">
    <path id="Path_1168" data-name="Path 1168" d="M179.987,261a.409.409,0,0,0-.111.2l-.908,3.855a.416.416,0,0,0,.406.512.381.381,0,0,0,.1-.012l3.854-.908a.416.416,0,0,0,.2-.111l5.451-5.451-3.536-3.536Zm0,0" transform="translate(-171.966 -245.568)" fill="rgba(255,255,255,0.6)"/>
    <path id="Path_1169" data-name="Path 1169" d="M372.664,181.022l-1.178-1.178a1.707,1.707,0,0,0-2.357,0l-1.62,1.62L371.044,185l1.62-1.62a1.667,1.667,0,0,0,0-2.357Zm0,0" transform="translate(-353.152 -172.364)" fill="rgba(255,255,255,0.6)"/>
    <path id="Path_1170" data-name="Path 1170" d="M5.7,15.833H2.083a.417.417,0,0,1-.417-.417V13.333h6.25A.834.834,0,0,0,8.75,12.5V9.167h3.392a.833.833,0,0,0,0-1.667H8.75V5h5.417v.833a.833.833,0,1,0,1.667,0V1.875A1.877,1.877,0,0,0,13.958,0H1.875A1.877,1.877,0,0,0,0,1.875V15.417A2.086,2.086,0,0,0,2.083,17.5H5.7a.833.833,0,0,0,0-1.667Zm1.383-4.167H1.667v-2.5H7.083Zm0-4.167H1.667V5H7.083Zm0,0" fill="rgba(255,255,255,0.6)"/>
  </g>
</svg>
