<svg xmlns="http://www.w3.org/2000/svg" width="18" height="18" viewBox="0 0 18 18">
  <path id="Path_2752" data-name="Path 2752" d="M20.417,14H14.839l-1.6-4h2.928A.775.775,0,0,0,17,9.3V3.7a.775.775,0,0,0-.833-.7H7.833A.775.775,0,0,0,7,3.7V9.3a.775.775,0,0,0,.833.7h2.928l-1.6,4H3.583A.649.649,0,0,0,3,14.7v5.6a.649.649,0,0,0,.583.7H9.417A.649.649,0,0,0,10,20.3V14.7c0-.026-.01-.048-.012-.073L11.839,10h.322l1.851,4.627c0,.025-.012.047-.012.073v5.6a.649.649,0,0,0,.583.7h5.834A.649.649,0,0,0,21,20.3V14.7A.649.649,0,0,0,20.417,14ZM6,20H4V18H6Zm0-3H4V15H6Zm3,3H7V18H9Zm0-3H7V15H9ZM14,4h2V6H14Zm0,3h2V9H14ZM11,4h2V6H11Zm0,3h2V9H11ZM10,9H8V7h2Zm0-3H8V4h2Zm7,14H15V18h2Zm0-3H15V15h2Zm3,3H18V18h2Zm0-3H18V15h2Z" transform="translate(-3 -3)" fill="#a9a9a9"/>
</svg>
