<svg xmlns="http://www.w3.org/2000/svg" width="82.042" height="73.283" viewBox="0 0 82.042 73.283">
  <g id="sheet" transform="translate(0 -23.861)">
    <path id="Path_833" data-name="Path 833" d="M78.976,23.861H3.065A3.068,3.068,0,0,0,0,26.926V94.079a3.057,3.057,0,0,0,1.313,2.508l.39.242.709.241a3.032,3.032,0,0,0,.653.074H78.976a3.03,3.03,0,0,0,.651-.074h.151v-.046a3.063,3.063,0,0,0,2.264-2.945V26.927A3.07,3.07,0,0,0,78.976,23.861ZM12.114,94.442H2.837a.427.427,0,0,1-.21-.363V86.122h9.487Zm0-10.948H2.627V74.866h9.487Zm0-11.255H2.627V63.13h9.487Zm0-11.737H2.627V50.649h9.487Zm0-12.481H2.627V38.386h9.487ZM34.231,94.442H14.742v-8.32H34.231Zm0-10.948H14.742V74.866H34.231v8.629Zm0-11.255H14.742V63.13H34.231v9.11Zm0-11.737H14.742V50.649H34.231V60.5Zm0-12.481H14.742V38.386H34.231v9.635Zm0-12.263H14.742V26.487H34.231v9.271ZM56.569,94.442H36.859v-8.32h19.71Zm0-10.948H36.859V74.866h19.71Zm0-11.255H36.859V63.13h19.71Zm0-11.737H36.859V50.649h19.71Zm0-12.481H36.859V38.386h19.71Zm0-12.263H36.859V26.487h19.71Zm22.845,58.32a.432.432,0,0,1-.211.363h-20v-8.32H79.414Zm0-10.584H59.2V74.866H79.414Zm0-11.255H59.2V63.13H79.414Zm0-11.737H59.2V50.649H79.414Zm0-12.481H59.2V38.386H79.414Zm0-12.263H59.2V26.487H78.98a.439.439,0,0,1,.438.438v8.833ZM32.278,33.844H16.508V28.36h15.77v5.485Zm22.284.207H38.792V28.566h15.77ZM77.4,33.93H61.626V28.445H77.395Z" fill="#575b63"/>
    <rect id="Rectangle_2328" data-name="Rectangle 2328" width="15.8" height="5.5" transform="translate(16.5 28.361)" fill="#0094ff"/>
    <rect id="Rectangle_2329" data-name="Rectangle 2329" width="15.9" height="5.8" transform="translate(38.7 28.361)" fill="#0094ff"/>
    <rect id="Rectangle_2330" data-name="Rectangle 2330" width="15.9" height="5.8" transform="translate(61.6 28.361)" fill="#0094ff"/>
  </g>
</svg>
