<svg xmlns="http://www.w3.org/2000/svg" width="29.259" height="34.281" viewBox="0 0 29.259 34.281">
  <g id="Group_2218" data-name="Group 2218" transform="translate(-309.565 -407.067)">
    <g id="Group_2217" data-name="Group 2217" transform="translate(319.688 407.067)">
      <g id="Group_2216" data-name="Group 2216">
        <path id="Path_2123" data-name="Path 2123" d="M325.447,416.436a.561.561,0,0,0-.512-.377h-2.253v-8.349a.608.608,0,0,0-.563-.642h-2.254a.608.608,0,0,0-.563.642v8.349h-2.253a.566.566,0,0,0-.513.377.712.712,0,0,0,.089.688l3.944,5.138a.531.531,0,0,0,.423.219.538.538,0,0,0,.424-.219l3.944-5.138A.708.708,0,0,0,325.447,416.436Z" transform="translate(-316.484 -407.067)" fill="#a0a0a0"/>
      </g>
    </g>
    <path id="Path_2124" data-name="Path 2124" d="M322.976,422.171v1.739H312V413.547a.611.611,0,0,1,.61-.61h5.73a1.219,1.219,0,0,0,1.219-1.22h0a1.219,1.219,0,0,0-1.219-1.219h-5.732a3.052,3.052,0,0,0-3.047,3.047v23.164a3.052,3.052,0,0,0,3.047,3.047h23.164a3.051,3.051,0,0,0,3.047-3.047V413.547a3.051,3.051,0,0,0-3.047-3.047h-5.855a1.219,1.219,0,0,0-1.22,1.219h0a1.219,1.219,0,0,0,1.22,1.22h5.855a.61.61,0,0,1,.61.61v10.362H325.415v-1.739m0,0h-2.439m0,15.149H312.612a.611.611,0,0,1-.61-.61V426.348h10.972Zm13.411-.609a.61.61,0,0,1-.61.61H325.413V426.35h10.972Z" transform="translate(0 1.589)" fill="#a0a0a0" style="isolation: isolate"/>
  </g>
</svg>
