<svg id="alphanumeric" xmlns="http://www.w3.org/2000/svg" width="16.924" height="16.924" viewBox="0 0 16.924 16.924">
  <path id="Path_952" data-name="Path 952" d="M16.419,3.5a.5.5,0,0,0,.5-.5V.5a.5.5,0,0,0-.5-.5H13.91a.5.5,0,0,0-.5.5v.759H3.5V.5A.5.5,0,0,0,3,0H.5A.5.5,0,0,0,0,.5V3a.5.5,0,0,0,.5.5h.759v9.916H.5a.5.5,0,0,0-.5.5v2.508a.5.5,0,0,0,.5.5H3a.5.5,0,0,0,.5-.5V15.66h9.916v.759a.5.5,0,0,0,.5.5h2.508a.5.5,0,0,0,.5-.5V13.91a.5.5,0,0,0-.5-.5H15.66V3.5ZM14.406.991h1.517V2.508H14.406ZM.991.991H2.508V2.508H.991ZM2.508,15.923H.991V14.406H2.508Zm13.415,0H14.406V14.406h1.517Zm-1.254-2.508H13.91a.5.5,0,0,0-.5.5v.759H3.5V13.91a.5.5,0,0,0-.5-.5H2.245V3.5H3A.5.5,0,0,0,3.5,3V2.245h9.916V3a.5.5,0,0,0,.5.5h.759v9.916Z" fill="#a5afad"/>
  <text id="A" transform="translate(5 12)" fill="#a5afad" font-size="11" font-family="ArialMT, Arial"><tspan x="0" y="0">A</tspan></text>
</svg>
