<svg xmlns="http://www.w3.org/2000/svg" width="18.821" height="18" viewBox="0 0 18.821 18">
  <path id="database_edit_icon_137699" d="M4,14v3c0,2,3.05,3.72,7,4V18.11l.13-.11C7.12,17.76,4,16.06,4,14m8-1c-4.42,0-8-1.79-8-4v3c0,2.21,3.58,4,8,4h1.16L17,12.12A14.2,14.2,0,0,1,12,13M12,3C7.58,3,4,4.79,4,7s3.58,4,8,4,8-1.79,8-4-3.58-4-8-4m9,8.13a.522.522,0,0,0-.39.17l-1,1,2.05,2,1-1a.54.54,0,0,0,0-.77L21.42,11.3a.517.517,0,0,0-.38-.17m-2,1.75L13,18.94V21h2.06l6.06-6.07Z" transform="translate(-4 -3)" fill="#a5a5a5" opacity="0.4"/>
</svg>
