<svg xmlns="http://www.w3.org/2000/svg" width="20" height="20" viewBox="0 0 20 20">
  <path id="Path_2751" data-name="Path 2751" d="M19,7h1a2,2,0,0,0,2-2V4a2,2,0,0,0-2-2H19a2,2,0,0,0-2,2V5a1.98,1.98,0,0,0,.422,1.216l-1.2,1.794c-.021,0-.038-.01-.059-.01H7.833c-.021,0-.038.009-.059.01l-1.2-1.794A1.98,1.98,0,0,0,7,5V4A2,2,0,0,0,5,2H4A2,2,0,0,0,2,4V5A2,2,0,0,0,4,7H5a2,2,0,0,0,.79-.163L7.009,8.664c0,.013-.009.023-.009.036v5.6a.49.49,0,0,0,.013.055L5.635,17.113A1.971,1.971,0,0,0,5,17H4a2,2,0,0,0-2,2v1a2,2,0,0,0,2,2H5a2,2,0,0,0,2-2V19a1.987,1.987,0,0,0-.522-1.337L7.811,15c.008,0,.014,0,.022,0h8.334c.008,0,.014,0,.022,0l1.333,2.667A1.987,1.987,0,0,0,17,19v1a2,2,0,0,0,2,2h1a2,2,0,0,0,2-2V19a2,2,0,0,0-2-2H19a1.971,1.971,0,0,0-.635.113l-1.378-2.758A.489.489,0,0,0,17,14.3V8.7c0-.013-.008-.023-.009-.036L18.21,6.837A2,2,0,0,0,19,7Zm-9,7H8V12h2Zm0-3H8V9h2Zm3,3H11V12h2Zm0-3H11V9h2Zm3,3H14V12h2Zm0-3H14V9h2Z" transform="translate(-2 -2)" fill="#a9a9a9"/>
</svg>
