<svg id="import" xmlns="http://www.w3.org/2000/svg" width="17.998" height="17.998" viewBox="0 0 17.998 17.998">
  <g id="Group_3122" data-name="Group 3122" transform="translate(0.001 7.726)">
    <g id="Group_3121" data-name="Group 3121">
      <path id="Path_2429" data-name="Path 2429" d="M10.13,219.936a.558.558,0,0,0-.448-.163l-4.375.4a.563.563,0,0,0-.348.958l1.194,1.194L.189,228.287a.563.563,0,0,0,0,.8l.8.8a.561.561,0,0,0,.8,0l5.965-5.965,1.194,1.194a.565.565,0,0,0,.589.132.572.572,0,0,0,.206-.132.556.556,0,0,0,.162-.348l.4-4.375A.558.558,0,0,0,10.13,219.936Z" transform="translate(-0.024 -219.77)" fill="#FFC001"/>
    </g>
  </g>
  <g id="Group_3124" data-name="Group 3124">
    <g id="Group_3123" data-name="Group 3123">
      <path id="Path_2430" data-name="Path 2430" d="M16.873,0H1.125A1.125,1.125,0,0,0,0,1.125V12.374H2.25V2.25h13.5v13.5H5.624V18H16.873A1.124,1.124,0,0,0,18,16.873V1.125A1.125,1.125,0,0,0,16.873,0Z" fill="#FFC001"/>
    </g>
  </g>
</svg>
