<svg xmlns="http://www.w3.org/2000/svg" width="32" height="26" viewBox="0 0 32 26">
  <g id="Group_4015" data-name="Group 4015" transform="translate(-2 -6)">
    <rect id="Rectangle_2805" data-name="Rectangle 2805" width="6" height="3" transform="translate(18 13)" fill="#FFC001"/>
    <rect id="Rectangle_2806" data-name="Rectangle 2806" width="6" height="3" transform="translate(18 19)" fill="#FFC001"/>
    <rect id="Rectangle_2807" data-name="Rectangle 2807" width="3" height="2" transform="translate(4 8)" fill="#878787"/>
    <rect id="Rectangle_2808" data-name="Rectangle 2808" width="5" height="2" transform="translate(10 8)" fill="#878787"/>
    <rect id="Rectangle_2809" data-name="Rectangle 2809" width="6" height="2" transform="translate(18 8)" fill="#878787"/>
    <rect id="Rectangle_2810" data-name="Rectangle 2810" width="5" height="2" transform="translate(27 8)" fill="#878787"/>
    <g id="Group_4014" data-name="Group 4014">
      <g id="Group_4013" data-name="Group 4013">
        <path id="Path_2687" data-name="Path 2687" d="M33.853,28.825a.489.489,0,0,0-.382-.187.589.589,0,0,0-.559.46c-.036.1-.046.161-.095.155a1.429,1.429,0,0,1-.509-.924l-.261-1.316a3.318,3.318,0,0,1,.629-.827.637.637,0,0,1,.4-.162,1.163,1.163,0,0,0,.645-.159.64.64,0,0,0,.252-.515.652.652,0,0,0-.184-.467.607.607,0,0,0-.447-.184,1.517,1.517,0,0,0-.891.4,3.73,3.73,0,0,0-.643.693,1.989,1.989,0,0,0-.186-.525A.493.493,0,0,0,31.159,25l-.086,0-2.421.061.136-.624a3.209,3.209,0,0,1,.339-.959c.067-.111.17-.244.278-.244a1.4,1.4,0,0,1,.271.041,3.014,3.014,0,0,0,.655.109.623.623,0,0,0,.457-.187.672.672,0,0,0,.189-.481.681.681,0,0,0-.257-.535.906.906,0,0,0-.6-.185,2.243,2.243,0,0,0-1.181.385,2.932,2.932,0,0,0-.992,1.04,6.228,6.228,0,0,0-.583,1.64H26.3l-.236,1h1.071L26.32,29.6a2.526,2.526,0,0,1-.325.949.6.6,0,0,1-.425.124,4.168,4.168,0,0,1-.562-.041,2.52,2.52,0,0,0-.314-.027.707.707,0,0,0-.482.164A.648.648,0,0,0,24,31.26a.7.7,0,0,0,.267.555.94.94,0,0,0,.611.185,2.461,2.461,0,0,0,1.766-.813A4.7,4.7,0,0,0,27.776,28.9l.643-2.829,2.193.041.235,1.093-.48.766a4.813,4.813,0,0,1-.384.5,1.962,1.962,0,0,1-.181.191.591.591,0,0,0-.466-.275.544.544,0,0,0-.42.2.691.691,0,0,0-.167.458.71.71,0,0,0,.238.534.754.754,0,0,0,.524.2,1.245,1.245,0,0,0,.771-.31,4.939,4.939,0,0,0,.848-1.043,4.235,4.235,0,0,0,.706,1.353,1.353,1.353,0,0,0,1.05.479,1.071,1.071,0,0,0,.727-.3l.015-.012a.882.882,0,0,0,.372-.7A.646.646,0,0,0,33.853,28.825Z" fill="#FFC001"/>
      </g>
    </g>
    <path id="Path_2688" data-name="Path 2688" d="M18,25v3h4a6.962,6.962,0,0,1,.683-3Z" fill="#FFC001"/>
    <path id="Path_2689" data-name="Path 2689" d="M22.08,29H17V24h6.26a7.027,7.027,0,0,1,.846-1H17V18h8v4.26a6.926,6.926,0,0,1,1-.577V18h7v2.315a4.87,4.87,0,0,1,1,.211V8a2,2,0,0,0-2-2H4A2,2,0,0,0,2,8V28a2,2,0,0,0,2,2H22.294A6.782,6.782,0,0,1,22.08,29ZM26,7h6a1,1,0,0,1,1,1v3H26Zm0,5h7v5H26ZM17,7h8v4H17Zm0,5h8v5H17ZM8,29H4a1,1,0,0,1-1-1V24H8Zm0-6H3V18H8Zm0-6H3V12H8Zm0-6H3V8A1,1,0,0,1,4,7H8Zm8,18H9V24h7Zm0-6H9V18h7Zm0-6H9V12h7Zm0-6H9V7h7Z" fill="#878787"/>
  </g>
</svg>
